<mxfile host="Electron" modified="2024-04-19T11:36:57.679Z" agent="Mozilla/5.0 (Windows NT 10.0; Win64; x64) AppleWebKit/537.36 (KHTML, like Gecko) draw.io/21.6.8 Chrome/114.0.5735.289 Electron/25.5.0 Safari/537.36" etag="sWRRVc6dh9pYM8CLkncu" version="21.6.8" type="device">
  <diagram name="Страница — 1" id="EJMO9S1pi9yWRXILg9kb">
    <mxGraphModel dx="1434" dy="2005" grid="1" gridSize="10" guides="1" tooltips="1" connect="1" arrows="1" fold="1" page="1" pageScale="1" pageWidth="827" pageHeight="1169" math="0" shadow="0">
      <root>
        <mxCell id="0" />
        <mxCell id="1" parent="0" />
        <mxCell id="ULA0XsyP2q0sNug3zvJ--26" value="&lt;font style=&quot;font-size: 17px;&quot;&gt;аттракционы&lt;/font&gt;" style="rounded=1;whiteSpace=wrap;html=1;fillColor=#dae8fc;strokeColor=#6c8ebf;" vertex="1" parent="1">
          <mxGeometry x="1441" y="200" width="160" height="40" as="geometry" />
        </mxCell>
        <mxCell id="ULA0XsyP2q0sNug3zvJ--27" value="&lt;font style=&quot;font-size: 17px;&quot;&gt;категории аттракционов&lt;/font&gt;" style="rounded=1;whiteSpace=wrap;html=1;fillColor=#dae8fc;strokeColor=#6c8ebf;" vertex="1" parent="1">
          <mxGeometry x="1441" y="40" width="160" height="40" as="geometry" />
        </mxCell>
        <mxCell id="ULA0XsyP2q0sNug3zvJ--29" value="&lt;font style=&quot;font-size: 17px;&quot;&gt;пользователи&lt;/font&gt;" style="rounded=1;whiteSpace=wrap;html=1;fillColor=#dae8fc;strokeColor=#6c8ebf;" vertex="1" parent="1">
          <mxGeometry x="1160" y="520" width="160" height="40" as="geometry" />
        </mxCell>
        <mxCell id="ULA0XsyP2q0sNug3zvJ--86" style="edgeStyle=orthogonalEdgeStyle;rounded=0;orthogonalLoop=1;jettySize=auto;html=1;" edge="1" parent="1" source="ULA0XsyP2q0sNug3zvJ--30" target="ULA0XsyP2q0sNug3zvJ--27">
          <mxGeometry relative="1" as="geometry" />
        </mxCell>
        <mxCell id="ULA0XsyP2q0sNug3zvJ--87" style="edgeStyle=orthogonalEdgeStyle;rounded=0;orthogonalLoop=1;jettySize=auto;html=1;endArrow=doubleBlock;endFill=1;" edge="1" parent="1" source="ULA0XsyP2q0sNug3zvJ--30" target="ULA0XsyP2q0sNug3zvJ--26">
          <mxGeometry relative="1" as="geometry" />
        </mxCell>
        <mxCell id="ULA0XsyP2q0sNug3zvJ--30" value="" style="rhombus;whiteSpace=wrap;html=1;fillColor=#d5e8d4;strokeColor=#82b366;" vertex="1" parent="1">
          <mxGeometry x="1501" y="120" width="40" height="40" as="geometry" />
        </mxCell>
        <mxCell id="ULA0XsyP2q0sNug3zvJ--35" style="edgeStyle=orthogonalEdgeStyle;rounded=0;orthogonalLoop=1;jettySize=auto;html=1;" edge="1" parent="1" source="ULA0XsyP2q0sNug3zvJ--33" target="ULA0XsyP2q0sNug3zvJ--40">
          <mxGeometry relative="1" as="geometry">
            <mxPoint x="1441" y="220" as="targetPoint" />
          </mxGeometry>
        </mxCell>
        <mxCell id="ULA0XsyP2q0sNug3zvJ--88" style="edgeStyle=orthogonalEdgeStyle;rounded=0;orthogonalLoop=1;jettySize=auto;html=1;" edge="1" parent="1" source="ULA0XsyP2q0sNug3zvJ--33" target="ULA0XsyP2q0sNug3zvJ--29">
          <mxGeometry relative="1" as="geometry" />
        </mxCell>
        <mxCell id="ULA0XsyP2q0sNug3zvJ--33" value="" style="rhombus;whiteSpace=wrap;html=1;fillColor=#d5e8d4;strokeColor=#82b366;" vertex="1" parent="1">
          <mxGeometry x="1080" y="520" width="40" height="40" as="geometry" />
        </mxCell>
        <mxCell id="ULA0XsyP2q0sNug3zvJ--38" style="edgeStyle=orthogonalEdgeStyle;rounded=0;orthogonalLoop=1;jettySize=auto;html=1;" edge="1" parent="1" source="ULA0XsyP2q0sNug3zvJ--36" target="ULA0XsyP2q0sNug3zvJ--37">
          <mxGeometry relative="1" as="geometry" />
        </mxCell>
        <mxCell id="ULA0XsyP2q0sNug3zvJ--39" style="edgeStyle=orthogonalEdgeStyle;rounded=0;orthogonalLoop=1;jettySize=auto;html=1;endArrow=doubleBlock;endFill=1;" edge="1" parent="1" source="ULA0XsyP2q0sNug3zvJ--36" target="ULA0XsyP2q0sNug3zvJ--29">
          <mxGeometry relative="1" as="geometry">
            <mxPoint x="1690" y="1100" as="targetPoint" />
          </mxGeometry>
        </mxCell>
        <mxCell id="ULA0XsyP2q0sNug3zvJ--36" value="" style="rhombus;whiteSpace=wrap;html=1;fillColor=#d5e8d4;strokeColor=#82b366;" vertex="1" parent="1">
          <mxGeometry x="1220" y="600" width="40" height="40" as="geometry" />
        </mxCell>
        <mxCell id="ULA0XsyP2q0sNug3zvJ--37" value="&lt;font style=&quot;font-size: 17px;&quot;&gt;роли&lt;/font&gt;" style="rounded=1;whiteSpace=wrap;html=1;fillColor=#dae8fc;strokeColor=#6c8ebf;" vertex="1" parent="1">
          <mxGeometry x="1160" y="680" width="160" height="40" as="geometry" />
        </mxCell>
        <mxCell id="ULA0XsyP2q0sNug3zvJ--40" value="&lt;font style=&quot;font-size: 17px;&quot;&gt;билеты&lt;/font&gt;" style="rounded=1;whiteSpace=wrap;html=1;fillColor=#dae8fc;strokeColor=#6c8ebf;" vertex="1" parent="1">
          <mxGeometry x="880" y="520" width="160" height="40" as="geometry" />
        </mxCell>
        <mxCell id="ULA0XsyP2q0sNug3zvJ--53" value="&lt;font style=&quot;font-size: 17px;&quot;&gt;сувениры&lt;/font&gt;" style="rounded=1;whiteSpace=wrap;html=1;fillColor=#dae8fc;strokeColor=#6c8ebf;" vertex="1" parent="1">
          <mxGeometry x="880" y="200" width="160" height="40" as="geometry" />
        </mxCell>
        <mxCell id="ULA0XsyP2q0sNug3zvJ--60" style="edgeStyle=orthogonalEdgeStyle;rounded=0;orthogonalLoop=1;jettySize=auto;html=1;endArrow=doubleBlock;endFill=1;" edge="1" parent="1" source="ULA0XsyP2q0sNug3zvJ--58" target="ULA0XsyP2q0sNug3zvJ--53">
          <mxGeometry relative="1" as="geometry" />
        </mxCell>
        <mxCell id="ULA0XsyP2q0sNug3zvJ--61" style="edgeStyle=orthogonalEdgeStyle;rounded=0;orthogonalLoop=1;jettySize=auto;html=1;" edge="1" parent="1" source="ULA0XsyP2q0sNug3zvJ--58" target="ULA0XsyP2q0sNug3zvJ--59">
          <mxGeometry relative="1" as="geometry" />
        </mxCell>
        <mxCell id="ULA0XsyP2q0sNug3zvJ--58" value="" style="rhombus;whiteSpace=wrap;html=1;fillColor=#d5e8d4;strokeColor=#82b366;" vertex="1" parent="1">
          <mxGeometry x="940" y="120" width="40" height="40" as="geometry" />
        </mxCell>
        <mxCell id="ULA0XsyP2q0sNug3zvJ--59" value="&lt;span style=&quot;font-size: 17px;&quot;&gt;категории сувениров&lt;/span&gt;" style="rounded=1;whiteSpace=wrap;html=1;fillColor=#dae8fc;strokeColor=#6c8ebf;" vertex="1" parent="1">
          <mxGeometry x="880" y="40" width="160" height="40" as="geometry" />
        </mxCell>
        <mxCell id="ULA0XsyP2q0sNug3zvJ--62" value="&lt;font style=&quot;font-size: 17px;&quot;&gt;новости&lt;/font&gt;" style="rounded=1;whiteSpace=wrap;html=1;fillColor=#dae8fc;strokeColor=#6c8ebf;" vertex="1" parent="1">
          <mxGeometry x="1160" y="40" width="160" height="40" as="geometry" />
        </mxCell>
        <mxCell id="ULA0XsyP2q0sNug3zvJ--63" value="&lt;font style=&quot;font-size: 17px;&quot;&gt;фото&lt;/font&gt;" style="rounded=1;whiteSpace=wrap;html=1;fillColor=#dae8fc;strokeColor=#6c8ebf;" vertex="1" parent="1">
          <mxGeometry x="1160" y="200" width="160" height="40" as="geometry" />
        </mxCell>
        <mxCell id="ULA0XsyP2q0sNug3zvJ--65" style="edgeStyle=orthogonalEdgeStyle;rounded=0;orthogonalLoop=1;jettySize=auto;html=1;" edge="1" parent="1" source="ULA0XsyP2q0sNug3zvJ--64" target="ULA0XsyP2q0sNug3zvJ--63">
          <mxGeometry relative="1" as="geometry" />
        </mxCell>
        <mxCell id="ULA0XsyP2q0sNug3zvJ--66" style="edgeStyle=orthogonalEdgeStyle;rounded=0;orthogonalLoop=1;jettySize=auto;html=1;" edge="1" parent="1" source="ULA0XsyP2q0sNug3zvJ--64" target="ULA0XsyP2q0sNug3zvJ--62">
          <mxGeometry relative="1" as="geometry" />
        </mxCell>
        <mxCell id="ULA0XsyP2q0sNug3zvJ--64" value="" style="rhombus;whiteSpace=wrap;html=1;fillColor=#d5e8d4;strokeColor=#82b366;" vertex="1" parent="1">
          <mxGeometry x="1220" y="120" width="40" height="40" as="geometry" />
        </mxCell>
        <mxCell id="ULA0XsyP2q0sNug3zvJ--71" style="edgeStyle=orthogonalEdgeStyle;rounded=0;orthogonalLoop=1;jettySize=auto;html=1;" edge="1" parent="1" source="ULA0XsyP2q0sNug3zvJ--70" target="ULA0XsyP2q0sNug3zvJ--63">
          <mxGeometry relative="1" as="geometry" />
        </mxCell>
        <mxCell id="ULA0XsyP2q0sNug3zvJ--72" style="edgeStyle=orthogonalEdgeStyle;rounded=0;orthogonalLoop=1;jettySize=auto;html=1;" edge="1" parent="1" source="ULA0XsyP2q0sNug3zvJ--70" target="ULA0XsyP2q0sNug3zvJ--53">
          <mxGeometry relative="1" as="geometry" />
        </mxCell>
        <mxCell id="ULA0XsyP2q0sNug3zvJ--70" value="" style="rhombus;whiteSpace=wrap;html=1;fillColor=#d5e8d4;strokeColor=#82b366;" vertex="1" parent="1">
          <mxGeometry x="1080" y="200" width="40" height="40" as="geometry" />
        </mxCell>
        <mxCell id="ULA0XsyP2q0sNug3zvJ--75" style="edgeStyle=orthogonalEdgeStyle;rounded=0;orthogonalLoop=1;jettySize=auto;html=1;" edge="1" parent="1" source="ULA0XsyP2q0sNug3zvJ--74" target="ULA0XsyP2q0sNug3zvJ--63">
          <mxGeometry relative="1" as="geometry" />
        </mxCell>
        <mxCell id="ULA0XsyP2q0sNug3zvJ--76" style="edgeStyle=orthogonalEdgeStyle;rounded=0;orthogonalLoop=1;jettySize=auto;html=1;" edge="1" parent="1" source="ULA0XsyP2q0sNug3zvJ--74" target="ULA0XsyP2q0sNug3zvJ--29">
          <mxGeometry relative="1" as="geometry" />
        </mxCell>
        <mxCell id="ULA0XsyP2q0sNug3zvJ--74" value="" style="rhombus;whiteSpace=wrap;html=1;fillColor=#d5e8d4;strokeColor=#82b366;" vertex="1" parent="1">
          <mxGeometry x="1220" y="360" width="40" height="40" as="geometry" />
        </mxCell>
        <mxCell id="ULA0XsyP2q0sNug3zvJ--81" style="edgeStyle=orthogonalEdgeStyle;rounded=0;orthogonalLoop=1;jettySize=auto;html=1;" edge="1" parent="1" source="ULA0XsyP2q0sNug3zvJ--80" target="ULA0XsyP2q0sNug3zvJ--63">
          <mxGeometry relative="1" as="geometry" />
        </mxCell>
        <mxCell id="ULA0XsyP2q0sNug3zvJ--85" style="edgeStyle=orthogonalEdgeStyle;rounded=0;orthogonalLoop=1;jettySize=auto;html=1;" edge="1" parent="1" source="ULA0XsyP2q0sNug3zvJ--80" target="ULA0XsyP2q0sNug3zvJ--26">
          <mxGeometry relative="1" as="geometry" />
        </mxCell>
        <mxCell id="ULA0XsyP2q0sNug3zvJ--80" value="" style="rhombus;whiteSpace=wrap;html=1;fillColor=#d5e8d4;strokeColor=#82b366;" vertex="1" parent="1">
          <mxGeometry x="1360" y="200" width="40" height="40" as="geometry" />
        </mxCell>
        <mxCell id="ULA0XsyP2q0sNug3zvJ--90" style="edgeStyle=orthogonalEdgeStyle;rounded=0;orthogonalLoop=1;jettySize=auto;html=1;" edge="1" parent="1" source="ULA0XsyP2q0sNug3zvJ--89" target="ULA0XsyP2q0sNug3zvJ--53">
          <mxGeometry relative="1" as="geometry" />
        </mxCell>
        <mxCell id="ULA0XsyP2q0sNug3zvJ--92" style="edgeStyle=orthogonalEdgeStyle;rounded=0;orthogonalLoop=1;jettySize=auto;html=1;endArrow=doubleBlock;endFill=1;" edge="1" parent="1" source="ULA0XsyP2q0sNug3zvJ--89" target="ULA0XsyP2q0sNug3zvJ--91">
          <mxGeometry relative="1" as="geometry" />
        </mxCell>
        <mxCell id="ULA0XsyP2q0sNug3zvJ--89" value="" style="rhombus;whiteSpace=wrap;html=1;fillColor=#d5e8d4;strokeColor=#82b366;" vertex="1" parent="1">
          <mxGeometry x="800" y="200" width="40" height="40" as="geometry" />
        </mxCell>
        <mxCell id="ULA0XsyP2q0sNug3zvJ--91" value="&lt;font style=&quot;font-size: 17px;&quot;&gt;корзина&lt;/font&gt;" style="rounded=1;whiteSpace=wrap;html=1;fillColor=#dae8fc;strokeColor=#6c8ebf;" vertex="1" parent="1">
          <mxGeometry x="600" y="200" width="160" height="40" as="geometry" />
        </mxCell>
        <mxCell id="ULA0XsyP2q0sNug3zvJ--94" value="&lt;font style=&quot;font-size: 17px;&quot;&gt;статистика доходов&lt;/font&gt;" style="rounded=1;whiteSpace=wrap;html=1;fillColor=#dae8fc;strokeColor=#6c8ebf;" vertex="1" parent="1">
          <mxGeometry x="880" y="360" width="160" height="40" as="geometry" />
        </mxCell>
        <mxCell id="ULA0XsyP2q0sNug3zvJ--95" value="&lt;font style=&quot;font-size: 17px;&quot;&gt;Тип_билета&lt;/font&gt;" style="rounded=1;whiteSpace=wrap;html=1;fillColor=#dae8fc;strokeColor=#6c8ebf;" vertex="1" parent="1">
          <mxGeometry x="880" y="680" width="160" height="40" as="geometry" />
        </mxCell>
        <mxCell id="ULA0XsyP2q0sNug3zvJ--97" style="edgeStyle=orthogonalEdgeStyle;rounded=0;orthogonalLoop=1;jettySize=auto;html=1;endArrow=doubleBlock;endFill=1;" edge="1" parent="1" source="ULA0XsyP2q0sNug3zvJ--96" target="ULA0XsyP2q0sNug3zvJ--40">
          <mxGeometry relative="1" as="geometry" />
        </mxCell>
        <mxCell id="ULA0XsyP2q0sNug3zvJ--98" style="edgeStyle=orthogonalEdgeStyle;rounded=0;orthogonalLoop=1;jettySize=auto;html=1;" edge="1" parent="1" source="ULA0XsyP2q0sNug3zvJ--96" target="ULA0XsyP2q0sNug3zvJ--95">
          <mxGeometry relative="1" as="geometry" />
        </mxCell>
        <mxCell id="ULA0XsyP2q0sNug3zvJ--96" value="" style="rhombus;whiteSpace=wrap;html=1;fillColor=#d5e8d4;strokeColor=#82b366;" vertex="1" parent="1">
          <mxGeometry x="940" y="600" width="40" height="40" as="geometry" />
        </mxCell>
        <mxCell id="ULA0XsyP2q0sNug3zvJ--101" style="edgeStyle=orthogonalEdgeStyle;rounded=0;orthogonalLoop=1;jettySize=auto;html=1;" edge="1" parent="1" source="ULA0XsyP2q0sNug3zvJ--99" target="ULA0XsyP2q0sNug3zvJ--53">
          <mxGeometry relative="1" as="geometry" />
        </mxCell>
        <mxCell id="ULA0XsyP2q0sNug3zvJ--102" style="edgeStyle=orthogonalEdgeStyle;rounded=0;orthogonalLoop=1;jettySize=auto;html=1;endArrow=doubleBlock;endFill=1;" edge="1" parent="1" source="ULA0XsyP2q0sNug3zvJ--99" target="ULA0XsyP2q0sNug3zvJ--94">
          <mxGeometry relative="1" as="geometry" />
        </mxCell>
        <mxCell id="ULA0XsyP2q0sNug3zvJ--99" value="" style="rhombus;whiteSpace=wrap;html=1;fillColor=#d5e8d4;strokeColor=#82b366;" vertex="1" parent="1">
          <mxGeometry x="940" y="280" width="40" height="40" as="geometry" />
        </mxCell>
        <mxCell id="ULA0XsyP2q0sNug3zvJ--103" style="edgeStyle=orthogonalEdgeStyle;rounded=0;orthogonalLoop=1;jettySize=auto;html=1;endArrow=doubleBlock;endFill=1;" edge="1" parent="1" source="ULA0XsyP2q0sNug3zvJ--100" target="ULA0XsyP2q0sNug3zvJ--94">
          <mxGeometry relative="1" as="geometry" />
        </mxCell>
        <mxCell id="ULA0XsyP2q0sNug3zvJ--104" style="edgeStyle=orthogonalEdgeStyle;rounded=0;orthogonalLoop=1;jettySize=auto;html=1;" edge="1" parent="1" source="ULA0XsyP2q0sNug3zvJ--100" target="ULA0XsyP2q0sNug3zvJ--40">
          <mxGeometry relative="1" as="geometry" />
        </mxCell>
        <mxCell id="ULA0XsyP2q0sNug3zvJ--100" value="" style="rhombus;whiteSpace=wrap;html=1;fillColor=#d5e8d4;strokeColor=#82b366;" vertex="1" parent="1">
          <mxGeometry x="940" y="440" width="40" height="40" as="geometry" />
        </mxCell>
        <mxCell id="ULA0XsyP2q0sNug3zvJ--105" value="name" style="ellipse;whiteSpace=wrap;html=1;fillColor=#ffe6cc;strokeColor=#d79b00;" vertex="1" parent="1">
          <mxGeometry x="1160" y="730" width="80" height="40" as="geometry" />
        </mxCell>
        <mxCell id="ULA0XsyP2q0sNug3zvJ--106" value="code" style="ellipse;whiteSpace=wrap;html=1;fillColor=#ffe6cc;strokeColor=#d79b00;" vertex="1" parent="1">
          <mxGeometry x="1240" y="730" width="80" height="40" as="geometry" />
        </mxCell>
        <mxCell id="ULA0XsyP2q0sNug3zvJ--107" value="" style="endArrow=none;html=1;rounded=0;" edge="1" parent="1" source="ULA0XsyP2q0sNug3zvJ--105" target="ULA0XsyP2q0sNug3zvJ--37">
          <mxGeometry width="50" height="50" relative="1" as="geometry">
            <mxPoint x="1110" y="450" as="sourcePoint" />
            <mxPoint x="1160" y="400" as="targetPoint" />
          </mxGeometry>
        </mxCell>
        <mxCell id="ULA0XsyP2q0sNug3zvJ--108" value="" style="endArrow=none;html=1;rounded=0;" edge="1" parent="1" source="ULA0XsyP2q0sNug3zvJ--106" target="ULA0XsyP2q0sNug3zvJ--37">
          <mxGeometry width="50" height="50" relative="1" as="geometry">
            <mxPoint x="1220" y="771" as="sourcePoint" />
            <mxPoint x="1240" y="730" as="targetPoint" />
          </mxGeometry>
        </mxCell>
        <mxCell id="ULA0XsyP2q0sNug3zvJ--109" value="name" style="ellipse;whiteSpace=wrap;html=1;fillColor=#ffe6cc;strokeColor=#d79b00;" vertex="1" parent="1">
          <mxGeometry x="1430" y="-10" width="80" height="40" as="geometry" />
        </mxCell>
        <mxCell id="ULA0XsyP2q0sNug3zvJ--110" value="code" style="ellipse;whiteSpace=wrap;html=1;fillColor=#ffe6cc;strokeColor=#d79b00;" vertex="1" parent="1">
          <mxGeometry x="1510" y="-10" width="80" height="40" as="geometry" />
        </mxCell>
        <mxCell id="ULA0XsyP2q0sNug3zvJ--112" value="" style="endArrow=none;html=1;rounded=0;" edge="1" parent="1" source="ULA0XsyP2q0sNug3zvJ--27" target="ULA0XsyP2q0sNug3zvJ--110">
          <mxGeometry width="50" height="50" relative="1" as="geometry">
            <mxPoint x="1110" y="350" as="sourcePoint" />
            <mxPoint x="1160" y="300" as="targetPoint" />
          </mxGeometry>
        </mxCell>
        <mxCell id="ULA0XsyP2q0sNug3zvJ--113" value="" style="endArrow=none;html=1;rounded=0;" edge="1" parent="1" source="ULA0XsyP2q0sNug3zvJ--27" target="ULA0XsyP2q0sNug3zvJ--109">
          <mxGeometry width="50" height="50" relative="1" as="geometry">
            <mxPoint x="1110" y="350" as="sourcePoint" />
            <mxPoint x="1160" y="300" as="targetPoint" />
          </mxGeometry>
        </mxCell>
        <mxCell id="ULA0XsyP2q0sNug3zvJ--115" value="name" style="ellipse;whiteSpace=wrap;html=1;fillColor=#ffe6cc;strokeColor=#d79b00;" vertex="1" parent="1">
          <mxGeometry x="880" y="-10" width="80" height="40" as="geometry" />
        </mxCell>
        <mxCell id="ULA0XsyP2q0sNug3zvJ--116" value="code" style="ellipse;whiteSpace=wrap;html=1;fillColor=#ffe6cc;strokeColor=#d79b00;" vertex="1" parent="1">
          <mxGeometry x="960" y="-10" width="80" height="40" as="geometry" />
        </mxCell>
        <mxCell id="ULA0XsyP2q0sNug3zvJ--117" value="" style="endArrow=none;html=1;rounded=0;" edge="1" parent="1" source="ULA0XsyP2q0sNug3zvJ--59" target="ULA0XsyP2q0sNug3zvJ--115">
          <mxGeometry width="50" height="50" relative="1" as="geometry">
            <mxPoint x="1516" y="50" as="sourcePoint" />
            <mxPoint x="1494" y="19" as="targetPoint" />
          </mxGeometry>
        </mxCell>
        <mxCell id="ULA0XsyP2q0sNug3zvJ--118" value="" style="endArrow=none;html=1;rounded=0;" edge="1" parent="1" source="ULA0XsyP2q0sNug3zvJ--59" target="ULA0XsyP2q0sNug3zvJ--116">
          <mxGeometry width="50" height="50" relative="1" as="geometry">
            <mxPoint x="959" y="50" as="sourcePoint" />
            <mxPoint x="941" y="19" as="targetPoint" />
          </mxGeometry>
        </mxCell>
        <mxCell id="ULA0XsyP2q0sNug3zvJ--119" value="name" style="ellipse;whiteSpace=wrap;html=1;fillColor=#ffe6cc;strokeColor=#d79b00;" vertex="1" parent="1">
          <mxGeometry x="1331" y="440" width="80" height="40" as="geometry" />
        </mxCell>
        <mxCell id="ULA0XsyP2q0sNug3zvJ--120" value="surname" style="ellipse;whiteSpace=wrap;html=1;fillColor=#ffe6cc;strokeColor=#d79b00;" vertex="1" parent="1">
          <mxGeometry x="1330" y="480" width="80" height="40" as="geometry" />
        </mxCell>
        <mxCell id="ULA0XsyP2q0sNug3zvJ--121" value="patronymic" style="ellipse;whiteSpace=wrap;html=1;fillColor=#ffe6cc;strokeColor=#d79b00;" vertex="1" parent="1">
          <mxGeometry x="1331" y="520" width="80" height="40" as="geometry" />
        </mxCell>
        <mxCell id="ULA0XsyP2q0sNug3zvJ--122" value="password" style="ellipse;whiteSpace=wrap;html=1;fillColor=#ffe6cc;strokeColor=#d79b00;" vertex="1" parent="1">
          <mxGeometry x="1331" y="560" width="80" height="40" as="geometry" />
        </mxCell>
        <mxCell id="ULA0XsyP2q0sNug3zvJ--123" value="login" style="ellipse;whiteSpace=wrap;html=1;fillColor=#ffe6cc;strokeColor=#d79b00;" vertex="1" parent="1">
          <mxGeometry x="1331" y="600" width="80" height="40" as="geometry" />
        </mxCell>
        <mxCell id="ULA0XsyP2q0sNug3zvJ--124" value="" style="endArrow=none;html=1;rounded=0;" edge="1" parent="1" source="ULA0XsyP2q0sNug3zvJ--29" target="ULA0XsyP2q0sNug3zvJ--119">
          <mxGeometry width="50" height="50" relative="1" as="geometry">
            <mxPoint x="1110" y="550" as="sourcePoint" />
            <mxPoint x="1160" y="500" as="targetPoint" />
          </mxGeometry>
        </mxCell>
        <mxCell id="ULA0XsyP2q0sNug3zvJ--125" value="" style="endArrow=none;html=1;rounded=0;" edge="1" parent="1" source="ULA0XsyP2q0sNug3zvJ--29" target="ULA0XsyP2q0sNug3zvJ--120">
          <mxGeometry width="50" height="50" relative="1" as="geometry">
            <mxPoint x="1288" y="530" as="sourcePoint" />
            <mxPoint x="1373" y="485" as="targetPoint" />
          </mxGeometry>
        </mxCell>
        <mxCell id="ULA0XsyP2q0sNug3zvJ--126" value="" style="endArrow=none;html=1;rounded=0;" edge="1" parent="1" source="ULA0XsyP2q0sNug3zvJ--29" target="ULA0XsyP2q0sNug3zvJ--121">
          <mxGeometry width="50" height="50" relative="1" as="geometry">
            <mxPoint x="1325" y="530" as="sourcePoint" />
            <mxPoint x="1364" y="519" as="targetPoint" />
          </mxGeometry>
        </mxCell>
        <mxCell id="ULA0XsyP2q0sNug3zvJ--127" value="" style="endArrow=none;html=1;rounded=0;" edge="1" parent="1" source="ULA0XsyP2q0sNug3zvJ--29" target="ULA0XsyP2q0sNug3zvJ--122">
          <mxGeometry width="50" height="50" relative="1" as="geometry">
            <mxPoint x="1330" y="550" as="sourcePoint" />
            <mxPoint x="1360" y="550" as="targetPoint" />
          </mxGeometry>
        </mxCell>
        <mxCell id="ULA0XsyP2q0sNug3zvJ--128" value="" style="endArrow=none;html=1;rounded=0;" edge="1" parent="1" source="ULA0XsyP2q0sNug3zvJ--29" target="ULA0XsyP2q0sNug3zvJ--123">
          <mxGeometry width="50" height="50" relative="1" as="geometry">
            <mxPoint x="1325" y="570" as="sourcePoint" />
            <mxPoint x="1365" y="581" as="targetPoint" />
          </mxGeometry>
        </mxCell>
        <mxCell id="ULA0XsyP2q0sNug3zvJ--129" value="name" style="ellipse;whiteSpace=wrap;html=1;fillColor=#ffe6cc;strokeColor=#d79b00;" vertex="1" parent="1">
          <mxGeometry x="790" y="640" width="80" height="40" as="geometry" />
        </mxCell>
        <mxCell id="ULA0XsyP2q0sNug3zvJ--130" value="description" style="ellipse;whiteSpace=wrap;html=1;fillColor=#ffe6cc;strokeColor=#d79b00;" vertex="1" parent="1">
          <mxGeometry x="790" y="680" width="80" height="40" as="geometry" />
        </mxCell>
        <mxCell id="ULA0XsyP2q0sNug3zvJ--132" value="price" style="ellipse;whiteSpace=wrap;html=1;fillColor=#ffe6cc;strokeColor=#d79b00;" vertex="1" parent="1">
          <mxGeometry x="790" y="720" width="80" height="40" as="geometry" />
        </mxCell>
        <mxCell id="ULA0XsyP2q0sNug3zvJ--133" value="" style="endArrow=none;html=1;rounded=0;" edge="1" parent="1" source="ULA0XsyP2q0sNug3zvJ--132" target="ULA0XsyP2q0sNug3zvJ--95">
          <mxGeometry width="50" height="50" relative="1" as="geometry">
            <mxPoint x="1110" y="550" as="sourcePoint" />
            <mxPoint x="1160" y="500" as="targetPoint" />
          </mxGeometry>
        </mxCell>
        <mxCell id="ULA0XsyP2q0sNug3zvJ--134" value="" style="endArrow=none;html=1;rounded=0;" edge="1" parent="1" source="ULA0XsyP2q0sNug3zvJ--130" target="ULA0XsyP2q0sNug3zvJ--95">
          <mxGeometry width="50" height="50" relative="1" as="geometry">
            <mxPoint x="1110" y="550" as="sourcePoint" />
            <mxPoint x="1160" y="500" as="targetPoint" />
          </mxGeometry>
        </mxCell>
        <mxCell id="ULA0XsyP2q0sNug3zvJ--135" value="" style="endArrow=none;html=1;rounded=0;" edge="1" parent="1" source="ULA0XsyP2q0sNug3zvJ--129" target="ULA0XsyP2q0sNug3zvJ--95">
          <mxGeometry width="50" height="50" relative="1" as="geometry">
            <mxPoint x="1110" y="550" as="sourcePoint" />
            <mxPoint x="1160" y="500" as="targetPoint" />
          </mxGeometry>
        </mxCell>
        <mxCell id="ULA0XsyP2q0sNug3zvJ--136" value="total" style="ellipse;whiteSpace=wrap;html=1;fillColor=#ffe6cc;strokeColor=#d79b00;" vertex="1" parent="1">
          <mxGeometry x="850" y="430" width="80" height="40" as="geometry" />
        </mxCell>
        <mxCell id="ULA0XsyP2q0sNug3zvJ--137" value="datatime" style="ellipse;whiteSpace=wrap;html=1;fillColor=#ffe6cc;strokeColor=#d79b00;" vertex="1" parent="1">
          <mxGeometry x="827" y="470" width="80" height="40" as="geometry" />
        </mxCell>
        <mxCell id="ULA0XsyP2q0sNug3zvJ--138" value="" style="endArrow=none;html=1;rounded=0;" edge="1" parent="1" source="ULA0XsyP2q0sNug3zvJ--136" target="ULA0XsyP2q0sNug3zvJ--40">
          <mxGeometry width="50" height="50" relative="1" as="geometry">
            <mxPoint x="844" y="710" as="sourcePoint" />
            <mxPoint x="850" y="582.3076923076924" as="targetPoint" />
          </mxGeometry>
        </mxCell>
        <mxCell id="ULA0XsyP2q0sNug3zvJ--139" value="" style="endArrow=none;html=1;rounded=0;" edge="1" parent="1" source="ULA0XsyP2q0sNug3zvJ--137" target="ULA0XsyP2q0sNug3zvJ--40">
          <mxGeometry width="50" height="50" relative="1" as="geometry">
            <mxPoint x="840" y="580" as="sourcePoint" />
            <mxPoint x="850" y="557.6923076923076" as="targetPoint" />
          </mxGeometry>
        </mxCell>
        <mxCell id="ULA0XsyP2q0sNug3zvJ--140" value="quantity" style="ellipse;whiteSpace=wrap;html=1;fillColor=#ffe6cc;strokeColor=#d79b00;" vertex="1" parent="1">
          <mxGeometry x="510" y="140" width="80" height="40" as="geometry" />
        </mxCell>
        <mxCell id="ULA0XsyP2q0sNug3zvJ--141" value="" style="endArrow=none;html=1;rounded=0;" edge="1" parent="1" source="ULA0XsyP2q0sNug3zvJ--140" target="ULA0XsyP2q0sNug3zvJ--91">
          <mxGeometry width="50" height="50" relative="1" as="geometry">
            <mxPoint x="1100" y="400" as="sourcePoint" />
            <mxPoint x="590" y="170" as="targetPoint" />
          </mxGeometry>
        </mxCell>
        <mxCell id="ULA0XsyP2q0sNug3zvJ--142" value="tiket_type" style="ellipse;whiteSpace=wrap;html=1;fillColor=#ffe6cc;strokeColor=#d79b00;" vertex="1" parent="1">
          <mxGeometry x="990" y="430" width="80" height="40" as="geometry" />
        </mxCell>
        <mxCell id="ULA0XsyP2q0sNug3zvJ--143" value="user_id" style="ellipse;whiteSpace=wrap;html=1;fillColor=#ffe6cc;strokeColor=#d79b00;" vertex="1" parent="1">
          <mxGeometry x="1010" y="470" width="80" height="40" as="geometry" />
        </mxCell>
        <mxCell id="ULA0XsyP2q0sNug3zvJ--144" value="" style="endArrow=none;html=1;rounded=0;" edge="1" parent="1" source="ULA0XsyP2q0sNug3zvJ--142" target="ULA0XsyP2q0sNug3zvJ--40">
          <mxGeometry width="50" height="50" relative="1" as="geometry">
            <mxPoint x="879" y="565" as="sourcePoint" />
            <mxPoint x="890" y="562" as="targetPoint" />
          </mxGeometry>
        </mxCell>
        <mxCell id="ULA0XsyP2q0sNug3zvJ--145" value="" style="endArrow=none;html=1;rounded=0;" edge="1" parent="1" source="ULA0XsyP2q0sNug3zvJ--143" target="ULA0XsyP2q0sNug3zvJ--40">
          <mxGeometry width="50" height="50" relative="1" as="geometry">
            <mxPoint x="869" y="504" as="sourcePoint" />
            <mxPoint x="927" y="530" as="targetPoint" />
          </mxGeometry>
        </mxCell>
        <mxCell id="ULA0XsyP2q0sNug3zvJ--146" value="total_souvenir" style="ellipse;whiteSpace=wrap;html=1;fillColor=#ffe6cc;strokeColor=#d79b00;" vertex="1" parent="1">
          <mxGeometry x="1050" y="340" width="90" height="40" as="geometry" />
        </mxCell>
        <mxCell id="ULA0XsyP2q0sNug3zvJ--148" value="name" style="ellipse;whiteSpace=wrap;html=1;fillColor=#ffe6cc;strokeColor=#d79b00;" vertex="1" parent="1">
          <mxGeometry x="990" y="110" width="80" height="40" as="geometry" />
        </mxCell>
        <mxCell id="ULA0XsyP2q0sNug3zvJ--149" value="description" style="ellipse;whiteSpace=wrap;html=1;fillColor=#ffe6cc;strokeColor=#d79b00;" vertex="1" parent="1">
          <mxGeometry x="860" y="110" width="80" height="40" as="geometry" />
        </mxCell>
        <mxCell id="ULA0XsyP2q0sNug3zvJ--150" value="price" style="ellipse;whiteSpace=wrap;html=1;fillColor=#ffe6cc;strokeColor=#d79b00;" vertex="1" parent="1">
          <mxGeometry x="840" y="150" width="80" height="40" as="geometry" />
        </mxCell>
        <mxCell id="ULA0XsyP2q0sNug3zvJ--151" value="" style="endArrow=none;html=1;rounded=0;" edge="1" parent="1" source="ULA0XsyP2q0sNug3zvJ--53" target="ULA0XsyP2q0sNug3zvJ--149">
          <mxGeometry width="50" height="50" relative="1" as="geometry">
            <mxPoint x="1110" y="370" as="sourcePoint" />
            <mxPoint x="1160" y="320" as="targetPoint" />
          </mxGeometry>
        </mxCell>
        <mxCell id="ULA0XsyP2q0sNug3zvJ--152" value="" style="endArrow=none;html=1;rounded=0;" edge="1" parent="1" source="ULA0XsyP2q0sNug3zvJ--53" target="ULA0XsyP2q0sNug3zvJ--150">
          <mxGeometry width="50" height="50" relative="1" as="geometry">
            <mxPoint x="915" y="190" as="sourcePoint" />
            <mxPoint x="1180" y="320" as="targetPoint" />
          </mxGeometry>
        </mxCell>
        <mxCell id="ULA0XsyP2q0sNug3zvJ--153" value="" style="endArrow=none;html=1;rounded=0;" edge="1" parent="1" source="ULA0XsyP2q0sNug3zvJ--53" target="ULA0XsyP2q0sNug3zvJ--148">
          <mxGeometry width="50" height="50" relative="1" as="geometry">
            <mxPoint x="1130" y="390" as="sourcePoint" />
            <mxPoint x="1180" y="340" as="targetPoint" />
          </mxGeometry>
        </mxCell>
        <mxCell id="ULA0XsyP2q0sNug3zvJ--155" value="" style="endArrow=none;html=1;rounded=0;" edge="1" parent="1" source="ULA0XsyP2q0sNug3zvJ--63" target="ULA0XsyP2q0sNug3zvJ--168">
          <mxGeometry width="50" height="50" relative="1" as="geometry">
            <mxPoint x="1020" y="210" as="sourcePoint" />
            <mxPoint x="1358.7122826565483" y="176.65549635926527" as="targetPoint" />
          </mxGeometry>
        </mxCell>
        <mxCell id="ULA0XsyP2q0sNug3zvJ--156" value="title" style="ellipse;whiteSpace=wrap;html=1;fillColor=#ffe6cc;strokeColor=#d79b00;" vertex="1" parent="1">
          <mxGeometry x="1080" y="-10" width="80" height="40" as="geometry" />
        </mxCell>
        <mxCell id="ULA0XsyP2q0sNug3zvJ--157" value="content" style="ellipse;whiteSpace=wrap;html=1;fillColor=#ffe6cc;strokeColor=#d79b00;" vertex="1" parent="1">
          <mxGeometry x="1161" y="-10" width="80" height="40" as="geometry" />
        </mxCell>
        <mxCell id="ULA0XsyP2q0sNug3zvJ--158" value="datatime" style="ellipse;whiteSpace=wrap;html=1;fillColor=#ffe6cc;strokeColor=#d79b00;" vertex="1" parent="1">
          <mxGeometry x="1240" y="-10" width="80" height="40" as="geometry" />
        </mxCell>
        <mxCell id="ULA0XsyP2q0sNug3zvJ--159" value="" style="endArrow=none;html=1;rounded=0;" edge="1" parent="1" source="ULA0XsyP2q0sNug3zvJ--62" target="ULA0XsyP2q0sNug3zvJ--158">
          <mxGeometry width="50" height="50" relative="1" as="geometry">
            <mxPoint x="1298" y="210" as="sourcePoint" />
            <mxPoint x="1330" y="196" as="targetPoint" />
          </mxGeometry>
        </mxCell>
        <mxCell id="ULA0XsyP2q0sNug3zvJ--160" value="" style="endArrow=none;html=1;rounded=0;" edge="1" parent="1" source="ULA0XsyP2q0sNug3zvJ--62" target="ULA0XsyP2q0sNug3zvJ--156">
          <mxGeometry width="50" height="50" relative="1" as="geometry">
            <mxPoint x="1308" y="220" as="sourcePoint" />
            <mxPoint x="1346" y="40" as="targetPoint" />
          </mxGeometry>
        </mxCell>
        <mxCell id="ULA0XsyP2q0sNug3zvJ--161" value="" style="endArrow=none;html=1;rounded=0;" edge="1" parent="1" source="ULA0XsyP2q0sNug3zvJ--62" target="ULA0XsyP2q0sNug3zvJ--157">
          <mxGeometry width="50" height="50" relative="1" as="geometry">
            <mxPoint x="1318" y="230" as="sourcePoint" />
            <mxPoint x="1356" y="50" as="targetPoint" />
          </mxGeometry>
        </mxCell>
        <mxCell id="ULA0XsyP2q0sNug3zvJ--162" value="name" style="ellipse;whiteSpace=wrap;html=1;fillColor=#ffe6cc;strokeColor=#d79b00;" vertex="1" parent="1">
          <mxGeometry x="1541" y="110" width="80" height="40" as="geometry" />
        </mxCell>
        <mxCell id="ULA0XsyP2q0sNug3zvJ--163" value="description" style="ellipse;whiteSpace=wrap;html=1;fillColor=#ffe6cc;strokeColor=#d79b00;" vertex="1" parent="1">
          <mxGeometry x="1421" y="110" width="80" height="40" as="geometry" />
        </mxCell>
        <mxCell id="ULA0XsyP2q0sNug3zvJ--166" value="path" style="ellipse;whiteSpace=wrap;html=1;fillColor=#ffe6cc;strokeColor=#d79b00;" vertex="1" parent="1">
          <mxGeometry x="1150" y="150" width="80" height="40" as="geometry" />
        </mxCell>
        <mxCell id="ULA0XsyP2q0sNug3zvJ--167" value="" style="endArrow=none;html=1;rounded=0;" edge="1" parent="1" source="ULA0XsyP2q0sNug3zvJ--63" target="ULA0XsyP2q0sNug3zvJ--166">
          <mxGeometry width="50" height="50" relative="1" as="geometry">
            <mxPoint x="1298" y="210" as="sourcePoint" />
            <mxPoint x="1330" y="196" as="targetPoint" />
          </mxGeometry>
        </mxCell>
        <mxCell id="ULA0XsyP2q0sNug3zvJ--168" value="name" style="ellipse;whiteSpace=wrap;html=1;fillColor=#ffe6cc;strokeColor=#d79b00;" vertex="1" parent="1">
          <mxGeometry x="1251" y="150" width="80" height="40" as="geometry" />
        </mxCell>
        <mxCell id="ULA0XsyP2q0sNug3zvJ--170" value="" style="endArrow=none;html=1;rounded=0;" edge="1" parent="1" source="ULA0XsyP2q0sNug3zvJ--162" target="ULA0XsyP2q0sNug3zvJ--26">
          <mxGeometry width="50" height="50" relative="1" as="geometry">
            <mxPoint x="1650" y="188" as="sourcePoint" />
            <mxPoint x="1332" y="168" as="targetPoint" />
          </mxGeometry>
        </mxCell>
        <mxCell id="ULA0XsyP2q0sNug3zvJ--171" value="" style="endArrow=none;html=1;rounded=0;" edge="1" parent="1" source="ULA0XsyP2q0sNug3zvJ--163" target="ULA0XsyP2q0sNug3zvJ--26">
          <mxGeometry width="50" height="50" relative="1" as="geometry">
            <mxPoint x="1660" y="198" as="sourcePoint" />
            <mxPoint x="1342" y="178" as="targetPoint" />
          </mxGeometry>
        </mxCell>
        <mxCell id="ULA0XsyP2q0sNug3zvJ--173" value="user_id" style="ellipse;whiteSpace=wrap;html=1;fillColor=#ffe6cc;strokeColor=#d79b00;" vertex="1" parent="1">
          <mxGeometry x="510" y="180" width="80" height="40" as="geometry" />
        </mxCell>
        <mxCell id="ULA0XsyP2q0sNug3zvJ--174" value="souvenir_id" style="ellipse;whiteSpace=wrap;html=1;fillColor=#ffe6cc;strokeColor=#d79b00;" vertex="1" parent="1">
          <mxGeometry x="510" y="220" width="80" height="40" as="geometry" />
        </mxCell>
        <mxCell id="ULA0XsyP2q0sNug3zvJ--175" value="total" style="ellipse;whiteSpace=wrap;html=1;fillColor=#ffe6cc;strokeColor=#d79b00;" vertex="1" parent="1">
          <mxGeometry x="510" y="260" width="80" height="40" as="geometry" />
        </mxCell>
        <mxCell id="ULA0XsyP2q0sNug3zvJ--176" value="" style="endArrow=none;html=1;rounded=0;" edge="1" parent="1" source="ULA0XsyP2q0sNug3zvJ--173" target="ULA0XsyP2q0sNug3zvJ--91">
          <mxGeometry width="50" height="50" relative="1" as="geometry">
            <mxPoint x="580" y="180" as="sourcePoint" />
            <mxPoint x="600" y="190" as="targetPoint" />
          </mxGeometry>
        </mxCell>
        <mxCell id="ULA0XsyP2q0sNug3zvJ--177" value="" style="endArrow=none;html=1;rounded=0;" edge="1" parent="1" source="ULA0XsyP2q0sNug3zvJ--174" target="ULA0XsyP2q0sNug3zvJ--91">
          <mxGeometry width="50" height="50" relative="1" as="geometry">
            <mxPoint x="585" y="260" as="sourcePoint" />
            <mxPoint x="620" y="250" as="targetPoint" />
          </mxGeometry>
        </mxCell>
        <mxCell id="ULA0XsyP2q0sNug3zvJ--178" value="" style="endArrow=none;html=1;rounded=0;" edge="1" parent="1" source="ULA0XsyP2q0sNug3zvJ--175" target="ULA0XsyP2q0sNug3zvJ--91">
          <mxGeometry width="50" height="50" relative="1" as="geometry">
            <mxPoint x="576" y="295" as="sourcePoint" />
            <mxPoint x="655" y="250" as="targetPoint" />
          </mxGeometry>
        </mxCell>
        <mxCell id="ULA0XsyP2q0sNug3zvJ--179" value="" style="endArrow=none;html=1;rounded=0;" edge="1" parent="1" source="ULA0XsyP2q0sNug3zvJ--94" target="ULA0XsyP2q0sNug3zvJ--146">
          <mxGeometry width="50" height="50" relative="1" as="geometry">
            <mxPoint x="869" y="504" as="sourcePoint" />
            <mxPoint x="927" y="530" as="targetPoint" />
          </mxGeometry>
        </mxCell>
        <mxCell id="ULA0XsyP2q0sNug3zvJ--180" value="total_attraction" style="ellipse;whiteSpace=wrap;html=1;fillColor=#ffe6cc;strokeColor=#d79b00;" vertex="1" parent="1">
          <mxGeometry x="1050" y="380" width="90" height="40" as="geometry" />
        </mxCell>
        <mxCell id="ULA0XsyP2q0sNug3zvJ--181" value="" style="endArrow=none;html=1;rounded=0;" edge="1" parent="1" source="ULA0XsyP2q0sNug3zvJ--94" target="ULA0XsyP2q0sNug3zvJ--180">
          <mxGeometry width="50" height="50" relative="1" as="geometry">
            <mxPoint x="1050" y="390" as="sourcePoint" />
            <mxPoint x="1080" y="390" as="targetPoint" />
          </mxGeometry>
        </mxCell>
        <mxCell id="ULA0XsyP2q0sNug3zvJ--182" value="photo_id" style="ellipse;whiteSpace=wrap;html=1;fillColor=#ffe6cc;strokeColor=#d79b00;" vertex="1" parent="1">
          <mxGeometry x="1320" y="-10" width="80" height="40" as="geometry" />
        </mxCell>
        <mxCell id="ULA0XsyP2q0sNug3zvJ--183" value="" style="endArrow=none;html=1;rounded=0;" edge="1" parent="1" source="ULA0XsyP2q0sNug3zvJ--62" target="ULA0XsyP2q0sNug3zvJ--182">
          <mxGeometry width="50" height="50" relative="1" as="geometry">
            <mxPoint x="1282" y="50" as="sourcePoint" />
            <mxPoint x="1305" y="36" as="targetPoint" />
          </mxGeometry>
        </mxCell>
        <mxCell id="ULA0XsyP2q0sNug3zvJ--184" value="id_category" style="ellipse;whiteSpace=wrap;html=1;fillColor=#ffe6cc;strokeColor=#d79b00;" vertex="1" parent="1">
          <mxGeometry x="1010" y="150" width="80" height="40" as="geometry" />
        </mxCell>
        <mxCell id="ULA0XsyP2q0sNug3zvJ--185" value="" style="endArrow=none;html=1;rounded=0;" edge="1" parent="1" source="ULA0XsyP2q0sNug3zvJ--53" target="ULA0XsyP2q0sNug3zvJ--184">
          <mxGeometry width="50" height="50" relative="1" as="geometry">
            <mxPoint x="989" y="210" as="sourcePoint" />
            <mxPoint x="1083" y="108" as="targetPoint" />
          </mxGeometry>
        </mxCell>
        <mxCell id="ULA0XsyP2q0sNug3zvJ--186" value="id_category" style="ellipse;whiteSpace=wrap;html=1;fillColor=#ffe6cc;strokeColor=#d79b00;" vertex="1" parent="1">
          <mxGeometry x="1560" y="150" width="80" height="40" as="geometry" />
        </mxCell>
        <mxCell id="ULA0XsyP2q0sNug3zvJ--187" value="" style="endArrow=none;html=1;rounded=0;" edge="1" parent="1" source="ULA0XsyP2q0sNug3zvJ--26" target="ULA0XsyP2q0sNug3zvJ--186">
          <mxGeometry width="50" height="50" relative="1" as="geometry">
            <mxPoint x="952" y="210" as="sourcePoint" />
            <mxPoint x="906" y="158" as="targetPoint" />
          </mxGeometry>
        </mxCell>
        <mxCell id="ULA0XsyP2q0sNug3zvJ--188" value="total" style="ellipse;whiteSpace=wrap;html=1;fillColor=#ffe6cc;strokeColor=#d79b00;" vertex="1" parent="1">
          <mxGeometry x="770" y="360" width="90" height="40" as="geometry" />
        </mxCell>
        <mxCell id="ULA0XsyP2q0sNug3zvJ--189" value="" style="endArrow=none;html=1;rounded=0;" edge="1" parent="1" source="ULA0XsyP2q0sNug3zvJ--188" target="ULA0XsyP2q0sNug3zvJ--94">
          <mxGeometry width="50" height="50" relative="1" as="geometry">
            <mxPoint x="1110" y="380" as="sourcePoint" />
            <mxPoint x="1160" y="330" as="targetPoint" />
          </mxGeometry>
        </mxCell>
      </root>
    </mxGraphModel>
  </diagram>
</mxfile>
